<svg width="16" height="16" viewBox="0 0 16 16" fill="none" xmlns="http://www.w3.org/2000/svg">
<path fill-rule="evenodd" clip-rule="evenodd" d="M15.2445 9.94109C15.5321 8.8675 15.5716 7.78589 15.3982 6.75714C15.1659 7.5021 14.7515 8.14567 14.217 8.65082L14.2164 8.6562C13.8164 9.05014 13.3448 9.36513 12.8264 9.58383C12.2439 9.82954 11.6156 9.94806 10.9837 9.93145C10.3517 9.91485 9.73058 9.76351 9.16181 9.48756C8.59304 9.2116 8.08974 8.81739 7.68556 8.33128C7.28139 7.84518 6.98566 7.27838 6.81816 6.66879C6.65065 6.05921 6.61522 5.42088 6.71424 4.7965C6.81327 4.17213 7.04446 3.57608 7.39235 3.04824C7.71685 2.5559 8.1359 2.13347 8.62474 1.80523C9.24806 1.36964 9.98086 1.09508 10.7536 1.02296C10.4911 0.919747 10.2201 0.830238 9.94116 0.755504C5.94016 -0.316559 1.82764 2.05781 0.755573 6.0588C-0.31649 10.0598 2.05788 14.1723 6.05887 15.2444C10.0599 16.3165 14.1724 13.9421 15.2445 9.94109ZM13.6538 10.6664C12.391 13.3522 9.34987 14.8321 6.3824 14.037C3.04824 13.1436 1.06959 9.71649 1.96298 6.38233C2.57995 4.07978 4.40529 2.4237 6.57391 1.91357C6.47121 2.04347 6.37396 2.17797 6.2825 2.31675C5.83047 3.00259 5.53008 3.77703 5.40142 4.5883C5.27276 5.39957 5.31879 6.22895 5.53643 7.021C5.75408 7.81304 6.13832 8.54949 6.66347 9.1811C7.18862 9.81271 7.84257 10.3249 8.58158 10.6835C9.3206 11.042 10.1277 11.2387 10.9488 11.2602C11.7699 11.2818 12.5862 11.1278 13.343 10.8085C13.4481 10.7642 13.5518 10.7168 13.6538 10.6664ZM14.1628 3.38381L13.835 2.375L13.5072 3.38381L12.4465 3.38381L13.3046 4.0073L12.9768 5.01611L13.835 4.39263L14.6931 5.01611L14.3654 4.0073L15.2235 3.38381L14.1628 3.38381ZM10.085 2.375L10.4128 3.38381L11.4735 3.38381L10.6154 4.0073L10.9431 5.01611L10.085 4.39263L9.22684 5.01611L9.55463 4.0073L8.69648 3.38381L9.75721 3.38381L10.085 2.375ZM12.2878 5.88381L11.96 4.875L11.6322 5.88381L10.5715 5.88381L11.4296 6.5073L11.1018 7.51611L11.96 6.89263L12.8181 7.51611L12.4904 6.5073L13.3485 5.88381L12.2878 5.88381Z" fill="white"/>
</svg>
