<svg width="25" height="25" viewBox="0 0 25 25" fill="none" xmlns="http://www.w3.org/2000/svg">
<path d="M4.4719 11.1531L11.7636 3.86144C11.9589 3.66616 12.2238 3.55646 12.5 3.55646C12.7762 3.55646 13.0411 3.66616 13.2365 3.86144L20.5281 11.1531C20.7235 11.3484 20.8333 11.6133 20.8334 11.8896V21.875C20.8334 22.1513 20.7236 22.4162 20.5283 22.6116C20.3329 22.8069 20.068 22.9167 19.7917 22.9167H14.5834V15.625H10.4167V22.9167H5.20835C4.93209 22.9167 4.66713 22.8069 4.47178 22.6116C4.27643 22.4162 4.16669 22.1513 4.16669 21.875V11.8896C4.16675 11.6133 4.27653 11.3484 4.4719 11.1531Z" fill="white"/>
</svg>
