<svg width="427" height="233" viewBox="0 0 427 233" fill="none" xmlns="http://www.w3.org/2000/svg">
<path d="M362.238 99.3358C363.608 99.7082 364.023 94.0419 361.449 94.8279C358.877 95.6138 360.619 98.8811 362.238 99.3358Z" fill="#292929"/>
<path d="M244.329 15.0471C244.329 15.0471 243.456 16.2466 245.53 16.2466C247.648 16.2466 252.003 14.8393 255.489 14.8393C258.973 14.8393 257.937 13.6398 257.231 13.6398C256.525 13.6398 254.616 11.7366 251.838 11.9033C249.058 12.0679 249.223 13.3086 247.481 13.3086C245.739 13.3086 246.071 12.7716 242.42 12.9773C238.769 13.144 242.42 14.7159 244.329 15.0471Z" fill="#292929"/>
<path d="M365.765 115.962C366.927 116.748 367.133 118.112 366.927 120.262C366.719 122.415 364.77 122.207 368.089 123.573C371.408 124.937 375.348 127.295 374.354 122.993C373.357 118.693 374.145 118.112 370.62 114.763C367.092 111.454 366.886 113.604 366.512 110.833C366.139 108.105 365.142 103.017 363.773 104.961C362.57 106.697 361.616 107.319 362.985 110.255C364.397 113.232 364.562 115.176 365.765 115.962Z" fill="#292929"/>
<path d="M399.702 140.983C397.13 138.255 392.816 136.27 391.072 136.475C389.289 136.683 387.753 139.413 386.758 138.42C385.761 137.428 382.816 132.753 381.282 134.12C379.706 135.484 381.489 137.056 379.497 137.056C377.549 137.056 376.967 139.413 376.552 136.27C376.178 133.126 374.601 131.554 374.186 133.912C373.813 136.27 373.606 137.842 372.611 136.062C371.614 134.284 371.034 135.484 371.034 133.706C371.034 131.926 367.092 129.982 365.557 131.926C364.562 133.167 364.188 133.292 363.773 136.021C363.4 138.751 362.405 143.053 364.562 141.895C366.719 140.736 367.133 141.687 368.089 140.323C369.084 138.957 370.246 138.173 372.029 138.957C373.813 139.743 373.026 139.743 376.137 139.329C379.291 138.957 380.824 138.957 383.025 140.323C385.181 141.687 389.495 140.901 389.495 142.267C389.495 143.631 384.975 144.623 389.495 145.989C394.018 147.353 394.973 150.497 396.383 148.925C397.751 147.353 399.702 145.203 401.114 146.775C402.482 148.347 407.793 152.647 406.796 150.289C405.801 147.933 406.01 145.781 409.161 143.259C412.315 140.736 411.527 139.537 410.158 139.537C408.788 139.537 408.788 141.315 405.636 141.687C402.441 142.183 402.274 143.714 399.702 140.983Z" fill="#292929"/>
<path d="M216.033 18.7691C216.239 18.8102 216.407 18.8514 216.572 18.8925C218.314 19.5962 219.558 18.5613 219.726 17.156C221.633 14.3846 220.929 19.4295 223.045 18.5613C225.119 17.693 228.106 15.5841 230.554 14.3846C233.002 13.1851 227.567 13.681 223.21 12.9773C218.855 12.2757 212.714 13.5164 210.972 14.7159C209.354 15.831 213.503 18.0243 216.033 18.7691Z" fill="#292929"/>
<path d="M358.297 122.787C357.094 124.316 354.77 127.667 353.193 128.867C351.618 130.023 348.879 128.494 349.088 131.223C349.294 133.953 349.459 135.152 349.668 137.097C349.874 139.041 350.248 140.241 353.193 140.241C356.14 140.241 357.509 141.232 358.504 140.819C359.501 140.446 359.292 138.669 360.454 136.311C361.616 133.953 363.608 134.533 362.82 132.795C362.031 131.017 362.031 131.43 362.031 129.653C362.031 127.873 363.026 129.073 362.446 126.137C361.823 123.201 359.666 121.048 358.297 122.787Z" fill="#292929"/>
<path d="M365.018 149.96C367.798 150.289 369.914 149.96 371.823 148.925C373.73 147.89 372.859 146.65 372.694 146.154C372.527 145.617 371.117 146.691 369.208 147.022C367.301 147.353 366.76 147.353 364.312 147.561C361.864 147.726 363.441 146.691 360.828 146.526C358.215 146.362 355.6 145.822 352.613 144.79C349.626 143.755 348.091 142.886 345.975 142.183C343.859 141.481 345.81 140.282 345.643 137.302C345.477 134.325 343.527 135.566 341.991 134.533C340.414 133.498 340.955 131.223 341.661 131.926C342.365 132.63 342.532 133.498 342.532 129.817C342.532 126.178 339.213 123.738 337.139 120.594C335.021 117.452 335.395 115.713 335.562 114.141C335.727 112.572 339.419 115.549 341.329 117.781C343.236 120.057 343.236 120.057 344.315 119.52C345.352 118.981 348.505 117.244 349.211 114.473C349.917 111.701 343.61 106.119 342.738 103.512C341.867 100.908 343.942 102.48 345.021 100.741C346.057 99.0046 347.302 101.445 346.596 102.644C345.892 103.844 346.763 104.547 347.469 105.788C348.173 106.988 348.173 105.788 348.879 104.216C349.585 102.644 349.044 102.107 350.289 101.072C351.533 100.039 356.223 98.6322 357.467 97.4327C358.712 96.2331 359.583 94.8279 361.119 90.4846C362.696 86.1412 360.952 86.3079 360.248 84.736C359.542 83.164 357.467 80.5593 356.223 78.9874C355.02 77.4155 356.056 77.7879 356.929 77.2509C357.8 76.7118 357.094 75.5123 355.02 74.8107C352.904 74.107 353.277 75.5123 351.368 75.1399C349.459 74.8107 350.497 73.4034 352.572 70.9632C354.687 68.523 353.61 71.5002 355.02 72.5351C356.429 73.57 356.762 71.6669 357.8 72.2039C358.836 72.7429 360.952 73.7758 362.529 75.8435C364.105 77.9113 364.105 80.3515 365.682 80.1869C367.259 80.0202 367.259 79.3186 367.963 77.7467C368.669 76.1748 366.056 74.7695 364.811 73.57C363.567 72.3705 362.363 72.3705 363.4 71.2945C364.438 70.2595 363.567 68.6897 364.105 67.447C364.644 66.2495 366.553 66.91 368.463 66.0417C370.37 65.1735 370.537 62.1963 370.537 59.0936C370.537 55.9498 368.96 54.5857 368.089 53.5096C367.218 52.4768 369.125 52.9726 370.702 54.2133C372.279 55.4128 374.727 62.0296 375.224 64.6776C375.763 67.2824 375.39 67.2824 377.505 69.5579C379.623 71.8315 378.917 71.4591 378.211 74.0659C377.505 76.6706 375.763 77.3743 373.15 78.078C370.537 78.7796 371.408 79.2775 369.831 81.9234C368.254 84.5302 370.702 84.6948 372.112 85.3985C373.524 86.1001 374.186 83.4953 375.972 82.2546C377.714 81.0551 379.623 80.1457 382.61 80.1457C385.596 80.1457 381.739 76.1336 381.571 74.0659C381.406 71.9981 381.241 70.5908 380.535 69.0189C379.829 67.447 381.241 67.447 383.316 66.4141C385.39 65.3792 385.223 63.2703 384.019 63.2703C382.816 63.2703 381.739 64.1385 378.958 63.9739C376.178 63.8093 376.884 61.5338 376.178 60.6655C375.474 59.7973 374.601 57.8941 374.436 56.3222C374.271 54.7503 371.823 52.6825 370.079 51.1106C368.337 49.5387 367.301 48.5058 367.301 49.2095C367.301 49.9111 366.262 49.0428 363.814 48.8782C361.366 48.7116 360.828 49.2095 358.753 49.0428C356.638 48.8782 358.919 45.4032 359.79 42.963C360.663 40.5228 363.111 41.9301 365.018 41.9301C366.927 41.9301 367.798 42.0947 370.62 42.7984C373.398 43.502 372.197 41.0619 372.735 39.1587C373.274 37.2555 374.477 38.2905 376.054 38.9921C377.631 39.6957 378.129 39.8624 378.129 38.2905C378.129 36.7185 379.538 36.3873 380.742 37.7514C381.945 39.1587 378.626 42.0947 378.626 42.0947C378.626 42.0947 377.59 45.2386 379.497 46.2714C381.406 47.3063 385.264 51.8554 387.547 53.4273C389.828 54.9992 388.251 50.8226 388.251 47.8433C388.251 44.8662 386.176 45.2386 384.601 42.4671C383.024 39.6957 384.061 40.8952 387.049 40.8952C390.036 40.8952 390.201 39.8624 390.907 38.9921C391.613 38.1238 392.11 37.9592 394.765 37.9592C397.38 37.9592 395.803 36.9243 394.6 35.519C393.396 34.1117 390.948 34.4841 391.819 33.6159C392.69 32.7476 397.421 34.1549 399.661 35.0232C401.943 35.8914 401.403 35.1878 401.072 33.12C400.74 31.0522 398.79 32.583 393.231 30.5152C387.629 28.4475 381.53 27.2048 379.623 27.2048C377.714 27.2048 379.082 26.0073 380.494 26.0073C381.904 26.0073 381.53 24.8078 380.162 24.1041C378.75 23.4005 377.549 23.9375 377.008 25.5094C376.469 27.0813 378.585 27.248 374.56 27.248C370.537 27.248 367.59 27.248 362.861 26.3777C358.13 25.5094 356.388 25.5094 352.363 25.3448C348.34 25.1781 348.714 23.4416 344.522 23.4416C340.332 23.4416 341.744 21.8697 339.999 19.9686C338.257 18.0654 337.386 18.5613 332.158 18.5613C326.932 18.5613 329.712 20.6291 330.748 21.0015C331.787 21.3327 334.606 22.201 336.515 23.9807C338.425 25.7172 333.031 25.0135 330.748 25.1781C328.468 25.3448 328.674 23.9807 326.02 22.4088C323.405 20.8369 316.934 21.7051 313.283 21.5405C309.631 21.3739 309.423 21.5405 308.054 18.9337C306.645 16.3289 303.697 17.7342 299.839 17.7342C295.982 17.7342 293.907 15.831 291.998 14.5904C290.089 13.3909 287.102 13.1851 282.912 12.5226C278.722 11.821 281.003 15.1294 282.58 15.294C282.58 15.294 284.322 15.9977 286.066 16.1623C287.808 16.3289 291.501 16.4935 293.41 18.7691C295.317 21.0426 287.476 20.1744 283.992 22.0775C280.506 23.9807 277.684 23.1104 275.279 24.1453C272.831 25.1781 276.481 26.9167 277.395 29.1902C278.266 31.4658 277.395 31.4658 275.818 31.9617C274.241 32.5007 276.357 29.5215 275.651 28.6532C274.947 27.785 272.332 23.277 270.258 21.8697C268.142 20.4645 268.515 23.0692 268.848 25.0135C269.18 26.9167 269.719 26.9167 270.258 28.322C270.798 29.7293 267.977 28.322 266.608 27.2891C265.197 26.2542 260.674 28.6944 258.559 27.6183C256.484 26.5855 259.264 26.9167 259.264 25.8818C259.264 24.849 256.816 25.7172 256.111 24.1453C255.405 22.5734 260.468 20.6702 263.62 20.1332C266.773 19.5962 266.4 19.5962 266.4 18.0654C266.4 16.4935 260.798 17.0305 256.111 19.265C251.382 21.5405 252.626 23.1104 251.921 24.6411C251.215 26.2131 253.498 26.3777 254.534 27.248C255.572 28.1162 253.33 28.4475 251.215 29.1491C249.14 29.8527 248.602 29.1491 246.154 30.0173C243.706 30.8876 245.115 31.9205 243 32.7888C240.925 33.657 241.093 33.657 239.348 34.3607C237.606 35.0643 239.681 31.7559 242.129 31.3835C244.577 31.0522 243.871 29.6449 243.167 29.1079C242.461 28.5709 237.939 27.2048 233.043 25.7995C228.147 24.3942 220.306 26.3365 217.693 27.536C215.079 28.7355 215.245 29.6449 214.912 31.3835C214.58 33.12 208.607 35.7248 205.661 37.2967C202.675 38.8686 205.329 40.9364 206.2 42.3437C207.071 43.7489 208.98 43.0453 211.428 42.3437C213.876 41.64 213.503 44.6172 213.876 45.6521C214.206 46.685 215.618 46.8516 217.899 45.8167C220.182 44.7839 219.643 42.3437 219.643 40.9364C219.643 39.5311 219.102 38.8275 220.679 36.9243C222.256 35.0232 223.666 33.7825 225.036 32.9143C226.446 32.044 226.24 33.6159 224.165 35.3544C222.091 37.0909 223.459 37.6279 224.496 39.6957C225.534 41.8046 227.649 39.6957 230.263 39.3645C232.878 39.0353 227.982 41.64 226.073 41.64C224.165 41.64 226.073 43.7078 224.869 43.7078C223.666 43.7078 223.459 44.576 223.294 46.685C223.127 48.7959 222.421 48.2569 221.012 48.7959C219.602 49.3329 217.527 49.4975 215.245 48.9605C212.962 48.4235 213.17 46.3558 211.593 44.9485C210.016 43.5432 209.686 45.6521 209.686 46.5204C209.686 47.3886 208.109 49.2918 207.403 49.2918C206.697 49.2918 204.623 51.4007 203.378 53.1372C202.175 54.8758 201.304 53.8409 200.93 53.1372C200.6 52.4356 201.801 51.4007 201.098 49.6642C200.392 47.9256 197.611 46.5204 198.483 42.5083C199.354 38.4962 197.446 40.6051 194.625 40.9364C191.845 41.2676 190.974 42.5083 190.767 43.5432C190.6 44.576 189.023 46.685 187.281 48.5881C185.539 50.4913 186.742 52.0632 187.613 54.1721C188.484 56.281 190.767 53.4685 191.471 51.732C192.177 49.9954 193.048 49.1251 194.086 49.9954C195.122 50.8637 192.509 52.4356 192.177 54.5034C191.845 56.6123 192.883 56.4045 195.331 55.7029C197.779 54.9992 196.534 54.5034 198.483 55.3716C200.392 56.2399 196.74 56.9435 194.46 57.1081C192.177 57.2727 193.048 58.8447 194.998 60.252C196.908 61.6572 196.035 63.725 194.833 63.8917C193.63 64.0562 191.347 64.4286 187.863 65.0912C184.377 65.7928 187.531 68.5642 186.825 70.1361C186.119 71.708 185.954 75.1831 187.531 75.3477C189.108 75.5123 189.108 78.1191 188.237 78.9874C187.363 79.8556 187.198 80.7239 185.083 82.2958C182.967 83.8677 184.544 85.273 183.879 87.3407C183.173 89.4105 181.431 88.211 179.357 90.4846C177.283 92.7601 176.37 94.4966 174.835 97.1014C173.258 99.7082 173.093 99.8728 175 103.017C176.909 106.16 175 107.029 173.425 109.8C171.848 112.572 173.964 112.777 174.628 115.176C175.332 117.617 176.744 117.08 177.241 119.52C177.78 121.96 178.445 122.661 180.893 124.4C183.341 126.137 185.789 128.577 186.992 128.04C188.193 127.501 190.144 126.137 194.169 126.301C198.194 126.468 196.782 124.565 200.972 123.861C205.164 123.159 202.881 124.4 203.42 125.6C203.96 126.84 206.2 128.04 209.354 128.204C212.506 128.369 209.893 132.216 209.686 134.657C209.519 137.097 209.686 137.097 211.261 139.164C212.838 141.232 214.912 145.948 215.453 148.388C215.992 150.828 214.912 153.598 213.544 155.873C212.132 158.149 212.673 163.358 215.618 167.206C218.605 171.051 216.822 170.846 216.822 174.858C216.822 178.87 218.937 178.166 220.473 180.44C222.05 182.715 221.344 186.892 222.754 189.126C224.165 191.4 226.613 189.291 229.392 188.258C232.172 187.223 233.416 187.554 236.735 185.114C240.054 182.674 242.67 177.794 242.67 176.43C242.67 175.022 243.706 174.526 245.448 173.823C247.19 173.119 246.86 168.611 246.651 167.37C246.486 166.171 246.983 165.097 247.689 164.393C248.393 163.69 252.75 159.513 254.327 157.776C255.904 156.038 254.492 153.598 254.16 150.828C253.83 148.057 252.75 146.981 252.75 143.672C252.75 140.364 251.712 140.695 257.479 135.317C263.246 129.941 268.639 121.38 269.18 119.476C269.719 117.575 269.512 116.003 269.18 114.596C268.848 113.191 261.339 116.003 259.597 116.003C257.853 116.003 254.701 112.156 254.369 110.792C254.036 109.387 251.382 108.02 249.14 105.912C246.86 103.844 248.602 100.867 246.86 98.591C245.115 96.3175 244.244 93.007 243.871 91.1059C243.541 89.2027 246.486 92.5112 248.767 95.118C251.05 97.7228 253.995 102.603 254.866 104.34C255.737 106.078 256.443 108.683 256.608 110.792C256.775 112.86 258.185 113.232 260.259 113.067C262.334 112.901 269.678 109.055 272.291 107.856C274.906 106.656 278.058 102.976 279.261 99.5004C280.464 96.0274 276.648 96.5232 274.906 94.7867C273.162 93.0482 273.162 94.7867 271.046 95.3237C268.972 95.8607 267.188 93.0482 263.869 89.9475C260.55 86.8037 262.666 87.8798 263.331 87.1761C263.993 86.4725 267.353 88.748 269.263 91.0216C271.172 93.2971 271.546 92.4289 273.785 92.4289C276.068 92.4289 276.565 93.4617 279.552 94.332C282.539 95.2003 284.074 94.0008 286.646 94.2477C289.177 94.4966 288.803 95.7373 290.588 98.5087C292.33 101.28 291.625 100.412 295.484 100.784C299.342 101.113 296.52 100.784 296.52 103.224C296.52 105.665 296.853 106.533 299.134 109.51C301.416 112.487 302.287 118.03 302.993 120.843C303.697 123.614 305.109 120.843 307.348 120.843C309.631 120.843 307.516 122.746 309.258 125.556C311 128.328 312.244 124.688 312.244 123.655C312.244 122.62 311.208 120.016 310.17 119.147C309.134 118.279 307.722 118.444 308.925 117.08C310.17 115.672 309.093 114.308 309.093 112.364C309.093 110.461 309.258 109.055 310.129 108.187C311 107.319 314.154 104.175 316.061 101.899C317.97 99.6259 319.547 99.2947 322.16 99.4593C324.775 99.6259 322.701 99.9983 324.276 102.066C325.853 104.175 326.185 107.111 327.927 109.22C329.669 111.329 329.836 108.889 331.246 108.187C332.658 107.483 331.787 110.255 332.823 112.364C333.861 114.473 333.155 117.244 333.155 119.147C333.155 121.048 335.436 122.993 336.806 124.729C338.216 126.468 337.677 127.336 336.806 128.04C335.935 128.741 334.191 126.301 332.782 124.896C331.372 123.489 329.297 124.359 330.707 125.929C332.117 127.501 332.988 130.272 334.565 133.249C336.142 136.228 339.461 139.701 341.744 142.804C344.024 145.948 351.327 147.312 354.149 147.312C356.638 147.189 362.238 149.629 365.018 149.958V149.96ZM243.83 82.4192C242.793 84.487 242.253 85.8943 240.678 85.3985C239.101 84.8594 233.873 85.0672 231.26 84.199C228.646 83.3307 224.787 81.7588 224.081 83.6599C223.377 85.5631 225.825 87.135 221.468 85.5631C217.113 83.9911 212.382 82.09 211.884 80.6827C211.346 79.2775 213.626 75.4711 210.473 75.4711C207.321 75.4711 202.964 75.3065 201.554 76.3394C200.142 77.3743 194.749 79.3186 193.007 78.7796C191.43 78.3249 188.982 77.7467 191.803 76.506C194.584 75.3065 197.903 75.967 198.276 74.2305C198.608 72.494 195.828 72.1627 198.608 70.5908C201.387 69.0189 200.35 67.6136 202.26 66.7454C204.167 65.8771 206.78 66.0417 208.192 65.5459C209.602 65.0068 207.653 64.511 210.473 66.0829C213.253 67.6548 214.995 70.5908 216.407 70.7986C217.816 70.9632 218.687 71.9981 217.816 72.6997C216.945 73.4034 215.536 73.8992 215.038 73.8992C214.497 73.8992 214.165 75.3065 214.706 75.4711C215.245 75.6378 216.448 77.9113 217.319 77.2097C218.19 76.5061 217.319 75.4711 218.896 74.9341C220.473 74.3971 222.05 73.7346 221.344 72.6586C220.638 71.6257 219.932 70.385 221.344 71.0867C222.754 71.7903 223.957 71.4179 222.38 69.8871C220.805 68.3173 220.264 68.3173 218.357 66.91C216.448 65.5047 214.332 64.8011 214.332 63.7661C214.332 62.7333 213.129 60.789 215.038 61.4926C216.945 62.1963 223.583 65.836 223.583 67.2412C223.583 68.6465 225.325 71.0867 223.751 72.2862C222.174 73.4857 225.325 73.8581 226.031 74.5617C226.737 75.2654 226.364 77.1665 228.314 76.8373C230.221 76.5061 231.633 76.6706 230.595 74.7263C229.559 72.8252 227.815 71.957 229.559 71.2533C231.301 70.5496 231.674 69.6814 232.172 72.6586C232.711 75.6378 232.007 76.6706 236.197 76.8373C240.387 77.0019 243.167 75.8024 243.706 77.0019C244.162 78.2426 244.868 80.3515 243.83 82.4192ZM250.635 69.3913C247.854 69.2267 243.126 68.3584 240.843 68.3584C238.562 68.3584 237.689 68.6897 237.689 68.6897C235.782 68.3584 231.218 69.5579 233.499 66.5787C235.782 63.6015 234.37 59.7973 237.15 60.8301C239.931 61.865 240.137 65.8771 241.881 63.4369C243.623 60.9968 245.53 58.2254 246.071 60.1265C246.61 62.0296 243.623 63.6015 247.274 65.1735C250.967 66.7865 253.415 69.5579 250.635 69.3913ZM267.395 75.8024C264.782 75.8024 261.628 75.2654 261.628 73.8992V70.5908C260.218 67.2824 258.476 66.5787 258.476 64.3052C258.476 62.0296 259.886 60.1265 262.666 60.1265C265.446 60.1265 266.856 59.7973 264.74 62.1963C262.666 64.6365 260.715 64.8011 263.537 68.6465C266.359 72.494 270.01 75.8024 267.395 75.8024Z" fill="#292929"/>
<path d="M401.073 166.212C399.287 161.704 399.287 158.19 398.334 156.246C397.337 154.301 398.125 151.943 395.18 151.943C393.976 151.943 394.018 152.729 393.023 155.254C392.028 157.776 393.231 162.49 390.657 161.912C388.127 161.332 386.923 160.134 386.343 157.61C385.761 155.087 387.132 152.729 385.181 152.729C383.231 152.729 377.714 151.365 376.345 153.515C374.975 155.668 376.719 156.451 373.813 156.451C370.867 156.451 369.707 156.451 368.13 158.396C366.553 160.34 364.397 165.842 355.973 166.214C347.552 166.584 351.866 171.094 351.866 175.975C351.866 180.855 347.343 183.791 349.335 185.569C351.286 187.349 348.755 189.663 352.863 188.299C356.97 186.933 360.704 186.519 367.175 185.569C373.648 184.577 376.593 184.205 376.801 187.349C377.008 190.49 376.013 188.34 378.585 188.918C381.157 189.499 378.378 193.634 381.324 194.007C384.269 194.379 382.484 196.529 385.058 196.529C387.588 196.529 388.583 199.259 386.426 199.259C384.269 199.259 381.115 203.767 384.269 202.195C387.421 200.623 390.534 200.251 390.534 197.893C390.534 195.537 390.16 195.371 393.852 192.435C397.586 189.499 406.216 182.466 405.636 176.802C405.013 171.136 402.856 170.722 401.073 166.214V166.212Z" fill="#292929"/>
<path d="M426.795 189.704C425.218 188.918 425.218 190.285 424.264 193.221C423.267 196.157 418.371 197.315 417.585 197.936C416.796 198.514 415.219 200.292 415.219 200.292C411.486 202.65 404.224 205.008 406.01 206.952C407.793 208.896 408.955 207.738 413.269 205.586C417.585 203.436 418.745 200.706 421.11 199.134C423.476 197.564 424.844 197.77 426.586 195.825C428.372 193.799 428.372 190.49 426.795 189.704Z" fill="#292929"/>
<path d="M146.912 140.942C143.761 140.074 143.593 141.109 143.263 139.37C142.931 137.634 140.815 137.634 138.906 137.634C136.997 137.634 136.293 137.469 134.716 136.062C133.139 134.657 129.82 134.49 128.782 134.161C127.746 133.829 128.243 130.85 126.169 128.081C124.053 125.309 119.696 124.772 116.918 123.201C114.137 121.629 115.008 115.549 110.984 116.045C106.959 116.582 106.628 118.154 102.936 116.209C99.2846 114.308 96.8367 113.067 94.8861 114.473C92.979 115.88 90.531 118.485 89.2864 119.188C88.083 119.892 85.9674 118.649 84.7641 118.857C83.5607 119.022 82.1489 117.617 81.2779 116.417C80.4069 115.217 82.8548 109.097 80.5741 109.097C78.2912 109.097 75.3458 108.062 75.3458 107.193C75.3458 106.325 80.0746 101.113 78.6648 100.245C77.253 99.377 74.4748 99.914 72.0268 103.224C69.5789 106.533 67.2961 106.366 66.0927 105.126C64.8915 103.926 62.0699 96.7722 64.3507 92.7601C66.6335 88.748 70.2848 86.8449 73.063 87.0115C75.8433 87.1761 75.511 86.3079 78.2912 86.1412C81.0715 85.9766 84.5969 86.8449 85.2615 87.8798C85.9674 88.9126 84.5556 90.6512 86.2976 92.7601C88.0418 94.8279 89.0779 93.9596 89.2864 94.8279C89.4515 95.6962 87.8746 96.5644 87.212 96.5644C86.5061 96.5644 80.7392 98.1363 83.0199 99.1712C85.3028 100.204 89.3277 99.3358 90.1987 100.741C91.0697 102.148 87.4184 105.084 92.6466 105.251C97.8728 105.416 101.359 106.119 104.346 106.284C107.332 106.449 109.407 106.615 109.739 107.319C110.071 108.02 112.187 104.712 107.291 104.712C102.395 104.712 98.5787 101.941 95.9243 101.404C93.3092 100.867 91.5672 99.128 91.402 97.0603C91.2348 94.9513 91.5672 93.4206 90.531 91.6841C89.4928 89.9476 86.8797 85.7709 89.3277 84.0323C91.7756 82.2958 96.6715 78.9874 97.8728 76.7118C99.0761 74.4383 99.0761 73.9404 101.898 72.2039C104.678 70.4674 107.997 68.1918 109.574 66.6199C111.151 65.05 113.764 62.6098 114.303 63.8505C114.843 65.05 117.291 65.4224 120.237 64.3875C123.223 63.3526 126.875 60.7478 123.721 60.7478C120.567 60.7478 118.66 59.8796 119.531 58.6801C120.402 57.4806 117.456 56.9436 116.544 57.1081C115.673 57.2727 115.673 55.3716 118.66 54.8326C121.646 54.2956 119.199 56.9436 121.646 56.7357C124.094 56.5711 125.671 54.668 127.413 54.2956C129.155 53.9643 129.861 55.4951 127.579 57.067C125.298 58.6389 124.592 58.0998 127.579 58.8035C130.567 59.5072 131.438 61.0791 133.18 59.5072C134.922 57.9353 132.848 57.3983 132.642 55.3305C132.474 53.2627 132.974 49.4152 131.065 48.01C129.155 46.6027 129.155 44.8662 129.155 43.502C129.155 42.0947 129.488 39.1587 127.581 40.5228C125.671 41.9301 124.094 42.7984 123.389 42.0947C122.685 41.3911 123.721 39.9858 122.185 38.9509C120.61 37.9181 120.443 36.3461 118.536 36.5107C116.627 36.6774 114.676 35.1055 113.64 37.3811C112.602 39.6546 111.524 41.5577 111.192 42.2614C110.86 42.963 112.395 45.4032 111.025 46.6027C109.615 47.8022 105.799 49.5819 105.258 50.7793C104.719 51.9789 102.645 55.1227 102.106 53.0549C101.565 50.9872 103.848 47.8433 100.694 46.9751C97.5426 46.1068 95.0946 46.8105 94.5972 44.9073C94.0564 43.0041 92.6879 41.2676 95.7984 39.6957C98.9523 38.1238 102.106 35.3544 105.052 34.982C108.038 34.6508 105.923 37.0909 108.371 36.8831C110.818 36.7185 108.038 35.4779 110.984 34.982C113.972 34.443 113.432 34.443 112.561 33.4101C111.69 32.3752 112.228 32.2106 114.47 31.1345C116.751 30.1017 115.008 29.398 117.248 28.5298C119.531 27.6615 120.028 26.7912 121.273 26.7912C122.476 26.7912 122.311 27.3303 121.605 28.9022C120.899 30.4741 120.402 31.507 122.476 30.4741C124.592 29.4392 125.63 28.7355 124.053 30.3074C122.476 31.8794 121.44 31.8794 119.157 32.2106C116.876 32.5419 117.58 32.9143 118.619 34.1117C119.655 35.3112 122.27 35.519 123.141 36.1815C124.012 36.8831 125.048 39.3233 127.166 38.0826C129.24 36.8831 127.704 36.6774 130.485 35.4779C133.263 34.2784 137.288 33.5747 136.955 32.0028C136.623 30.4309 133.804 29.5626 133.471 27.6615C133.139 25.7584 137.329 24.6823 131.894 23.814C126.501 22.9458 129.612 22.2421 126.999 22.2421C124.385 22.2421 119.49 22.2421 117.747 23.1104C116.003 23.9807 114.967 22.5734 114.096 23.9807C113.225 25.386 114.261 27.2891 113.39 27.2891C112.519 27.2891 110.942 28.6944 110.236 27.2891C109.533 25.8818 107.956 24.5177 110.071 23.9807C112.146 23.4416 112.519 23.814 112.852 22.2421C113.184 20.6702 109.865 20.8369 111.813 20.5056C113.723 20.1744 114.594 20.6702 117.207 20.6702C119.822 20.6702 125.754 21.7051 126.625 20.1332C127.496 18.5613 125.215 18.5613 122.6 18.3967C119.987 18.23 115.423 17.3618 113.514 18.23C111.607 19.1004 109.159 20.5056 108.288 21.8697C107.417 23.277 107.417 21.5405 105.673 21.8697C103.931 22.201 100.944 24.1453 102.521 25.1781C104.098 26.2131 104.098 27.4537 102.354 27.4537C100.612 27.4537 100.073 29.1902 98.8697 29.1902C97.6664 29.1902 94.3474 29.0256 95.8831 28.1574C97.46 27.2891 99.202 27.2891 99.0349 25.1781C98.8697 23.0692 100.779 22.4088 100.779 21.7051C100.779 21.0015 96.5869 23.277 93.2679 22.2421C89.9489 21.2093 88.5392 19.6374 85.2202 19.802C81.9012 19.9686 77.544 24.3099 79.6184 24.6823C81.734 25.0136 83.2697 24.351 83.6433 25.386C83.9756 26.4209 83.311 27.2891 84.5143 27.8261C85.7177 28.3631 88.0005 29.7293 85.053 29.0256C82.1076 28.322 83.4782 27.1225 78.9558 26.9167C74.4335 26.7501 71.612 25.3448 66.9225 26.5855C62.1937 27.785 62.8997 28.861 59.7458 27.785C56.5919 26.7501 49.954 24.3099 44.7278 25.3448C39.4996 26.3777 33.0268 28.1162 31.4498 29.1902C29.875 30.2251 33.0268 31.258 30.2485 31.4658C27.4683 31.6304 20.8303 31.4658 22.1988 33.2023C23.6085 34.9409 25.3526 35.1055 23.237 35.4779C21.1626 35.8091 18.3411 36.0149 17.3029 37.5456C16.2667 39.1176 12.407 39.9858 14.8549 40.6895C17.3029 41.3911 21.3278 42.963 19.5857 43.1296C17.8416 43.2942 8.92285 46.7693 5.10644 47.6376C1.24668 48.5058 -1.86384 52.6825 1.45514 51.4419C5.68643 49.9111 17.0118 46.3969 19.0862 45.5287C21.1626 44.6583 22.0749 45.362 21.8665 46.5615C21.7013 47.761 24.3144 46.0245 26.3888 44.4526C28.4632 42.8807 28.4632 39.7369 30.2485 40.8129C31.9906 41.8478 33.0268 40.8129 34.4386 40.4817C35.8483 40.1504 37.2168 39.2822 38.4614 39.9447C39.6647 40.6483 42.8186 41.3499 43.6896 42.0536C44.5606 42.7572 44.8929 44.3292 44.0219 44.4938C43.1509 44.6583 42.9837 45.5287 43.1509 46.9339C43.316 48.3392 44.0219 49.5387 42.2799 49.9111C40.5357 50.2423 40.8681 52.3513 41.9475 52.1867C42.9837 52.0221 43.6896 51.483 43.8568 50.4501C44.0219 49.4152 46.3027 47.4709 45.9724 48.8782C45.6401 50.2835 44.7691 51.6497 44.7691 52.7237C44.7691 53.7586 43.5658 53.5919 43.3573 54.6268C43.1922 55.6597 43.5245 55.6597 44.3955 56.53C45.2665 57.3983 44.7278 57.9353 44.5606 59.8384C44.3955 61.7395 39.1673 66.9923 38.4614 68.7308C37.7575 70.4674 38.1311 72.9075 38.1311 74.8107C38.1311 76.7118 37.4252 79.152 39.3345 79.8556C41.2416 80.5593 41.4088 80.8905 41.4088 82.627C41.4088 84.3636 41.4088 86.4725 42.445 87.672C43.4832 88.8715 42.9837 88.7069 42.9837 90.6512C42.9837 92.5935 44.187 91.5195 44.3955 93.0914C44.5606 94.6612 43.5245 95.3649 45.2665 96.5644C47.0086 97.7639 48.9178 98.6322 48.0468 96.7311C47.1758 94.8279 46.635 93.256 45.764 90.4434C44.8929 87.672 44.3542 82.627 45.4317 84.1578C46.4699 85.7277 47.8796 90.4434 49.4565 93.7107C51.0335 97.0191 52.9427 96.6879 52.9427 99.0869C52.9427 101.527 51.0335 103.803 54.8499 105.375C58.7096 106.946 61.4878 110.255 63.7707 109.882C66.0514 109.551 67.422 108.146 68.293 109.716C69.164 111.288 71.0733 113.355 73.1889 113.355C75.2633 113.355 75.9671 114.763 76.3407 116.831C76.673 118.898 78.0848 119.271 80.2005 119.974C82.2748 120.676 82.8135 122.952 84.3905 122.746C85.9674 122.579 88.0418 121.875 88.0418 123.447C88.0418 125.019 88.7456 128.826 86.1325 131.266C83.5194 133.706 82.2748 135.443 83.6846 137.014C85.0964 138.586 83.8518 140.156 83.1459 141.356C82.4399 142.555 83.6846 143.631 85.053 145.534C86.4648 147.436 88.372 149.711 89.5753 153.557C90.7787 157.404 92.5641 158.768 95.5095 160.009C98.4961 161.208 100.736 163.317 100.736 166.296C100.736 169.274 100.571 179.366 100.571 182.302C100.571 185.279 102.147 188.217 101.609 190.49C101.068 192.766 101.609 194.669 102.313 195.537C103.018 196.406 102.853 198.307 103.018 200.251C103.184 202.154 105.301 200.79 105.301 202.527C105.301 204.263 104.428 206.87 105.466 207.738C106.503 208.606 104.263 211.75 108.951 214.686C113.681 217.663 114.014 217.828 114.344 218.326C114.676 218.863 116.253 217.291 116.253 218.159C116.253 219.028 113.64 221.634 118.536 221.634C123.43 221.634 126.377 222.338 123.43 220.062C120.443 217.787 118.701 218.863 118.204 216.587C117.663 214.314 117 214.686 116.627 213.114C116.294 211.542 117.871 210.839 117.333 209.267C116.792 207.697 114.717 207.697 114.885 206.125C115.05 204.553 116.294 202.981 116.627 202.278C116.959 201.576 116.959 200.872 116.088 200.21C115.217 199.506 115.382 199.342 116.627 198.969C117.871 198.638 118.036 199.136 118.536 197.397C119.075 195.661 120.61 195.825 121.314 195.329C122.02 194.792 124.468 194.13 123.597 191.856C122.726 189.581 120.984 188.546 122.891 188.546C124.8 188.546 126.751 188.381 127.952 185.941C129.155 183.501 128.658 182.964 130.07 181.061C131.48 179.158 131.645 177.586 131.645 176.181C131.645 174.775 130.941 173.409 132.848 172.541C134.757 171.673 141.063 170.638 141.934 168.033C142.805 165.428 143.678 162.657 143.346 159.844C143.013 157.073 142.805 155.336 144.755 153.061C146.665 150.787 149.113 148.884 149.113 146.816C149.154 144.748 150.066 141.81 146.912 140.942Z" fill="#292929"/>
<path d="M179.233 26.5443C181.14 24.4765 180.643 23.4005 183.256 22.3676C185.871 21.3327 185.165 19.9275 184.833 17.8576C184.501 15.7487 184.833 16.6602 185.871 15.9565C186.907 15.2529 188.484 14.757 190.932 14.5492C193.38 14.3846 191.097 13.5164 191.097 12.4814C191.097 11.4486 189.355 11.6132 186.907 11.9444C184.459 12.2757 184.833 11.9444 183.05 11.2408C181.308 10.5371 171.018 10.5371 168.362 10.5371C165.749 10.5371 161.02 11.0762 158.572 11.2408C156.124 11.4074 156.289 11.2408 151.602 10.7038C146.871 10.1668 134.508 10.5371 129.944 11.035C125.422 11.572 122.103 12.0679 119.116 14.0122C116.129 15.9154 114.22 15.2117 110.901 15.5841C107.582 15.9154 107.25 15.9154 105.673 15.9154C104.098 15.9154 104.263 15.0471 101.483 16.08C98.7026 17.1149 99.5757 17.8165 98.4962 16.4112C97.458 15.0039 96.0482 16.4112 91.1523 17.6107C86.2564 18.8102 92.8944 20.2155 94.4713 20.7546C94.4713 20.7546 97.7903 20.5879 99.6995 20.0509C101.609 19.5139 102.48 20.7546 103.724 20.3822C104.928 20.0509 105.299 18.8102 112.27 17.2383C119.24 15.6664 124.136 16.9071 126.957 18.1066C129.738 19.3061 129.738 18.6436 132.185 17.0737C134.633 15.5018 138.823 14.3023 143.179 13.5987C147.536 12.895 144.756 14.4669 141.975 15.5018C139.197 16.5347 136.749 16.2034 137.247 17.942C137.785 19.6785 143.179 19.1415 144.756 19.1415C146.332 19.1415 146.498 21.5817 146.665 22.9869C146.83 24.3942 146.498 25.0958 146.83 26.462C147.162 27.8673 148.033 27.6615 146.498 29.0668C144.923 30.4741 144.05 30.2663 144.05 32.7065C144.05 35.1466 145.088 37.7514 147.536 39.49C149.984 41.2265 151.393 41.3911 152.764 38.6217C154.174 35.8503 157.493 34.1117 159.235 33.2435C160.977 32.3752 163.425 33.2435 165.708 31.1757C167.988 29.1079 170.936 29.9762 174.255 28.9022C177.656 27.9496 177.283 28.6532 179.233 26.5443Z" fill="#292929"/>
<path d="M182.717 30.5564C177.489 31.258 172.595 29.5215 173.466 32.2929C174.337 35.0643 174.502 39.241 177.324 38.3727C182.137 36.8831 187.448 36.0972 186.245 33.8648C184.959 31.5892 187.946 29.8527 182.717 30.5564Z" fill="#292929"/>
</svg>
